<svg xmlns="http://www.w3.org/2000/svg" viewBox="0 0 735 732"><g fill="none" stroke-width="2"><path stroke="#9c9c9c" d="M358.05 0q-72.27 2.12-135.82 29.74c-70.91 30.8-131.61 83.43-171.12 150.63Q3.17 261.9 0 357.5M377.13 0q125.47 4.67 221.8 82.25 7.96 6.41 14.93 12.79 77.31 70.79 106.47 170.49 13.29 45.47 14.36 96.21.09 4.5-.1 9.25-.17 4.35-.41 9.01-4.28 86.34-43.31 158.51c-37.63 69.6-97.24 126.29-169.39 159.67Q453.93 729.43 378.44 732M356.14 732q-75.33-2.57-141.06-32.81-100.21-46.1-159.47-140.14C20.41 503.18 1.72 438.39 0 372.22" vector-effect="non-scaling-stroke"/><path stroke="#9c3938" d="M61.86 201.88q-32.84 60.8-40.09 129.6a.73.72-87.1 0 0 .72.8l252.78-.01a.82.82 0 0 0 .76-.51q13.52-34.64 44.54-53.14 14.33-8.54 30.86-12.04c50.78-10.77 99.99 17.1 118.6 65.22a.74.73-10.3 0 0 .69.47h241.54a.67.66 87.2 0 0 .66-.73c-5.71-54.1-23.69-106.43-53.3-151.97Q603.83 93.79 510.83 50.86q-8.84-4.08-18.44-7.74-81.76-31.18-169.47-20.33c-46.59 5.75-92.02 21.63-131.77 45.16-54.11 32.02-99.16 78.13-129.29 133.93" vector-effect="non-scaling-stroke"/><path stroke="#9c9c9c" d="M456.72 367.64a83.7 83.7 0 0 0-83.7-83.7 83.7 83.7 0 0 0-83.7 83.7 83.7 83.7 0 0 0 83.7 83.7 83.7 83.7 0 0 0 83.7-83.7" vector-effect="non-scaling-stroke"/><path stroke="#9c9c9c" d="M234.3 685.78q77.01 31.8 160.32 25.3c162.59-12.7 294.59-137.59 316.79-299.18a.38.37 3.9 0 0-.38-.42l-244.05.01a.66.66 0 0 0-.59.37q-13.62 28.04-39.74 44.01c-52.16 31.91-120.89 11.24-146.93-44.08a.55.54 76.9 0 0-.49-.31H23.54a.43.42 85.9 0 0-.42.49c16.62 121.95 97.57 226.88 211.18 273.81" vector-effect="non-scaling-stroke"/></g><path fill="#FFFFFF" d="M0 0h358.05q-72.27 2.12-135.82 29.74c-70.91 30.8-131.61 83.43-171.12 150.63Q3.17 261.9 0 357.5V0Z"/><path fill="#383838" d="M358.05 0h19.08q125.47 4.67 221.8 82.25 7.96 6.41 14.93 12.79 77.31 70.79 106.47 170.49 13.29 45.47 14.36 96.21.09 4.5-.1 9.25-.17 4.35-.41 9.01-4.28 86.34-43.31 158.51c-37.63 69.6-97.24 126.29-169.39 159.67Q453.93 729.43 378.44 732h-22.3q-75.33-2.57-141.06-32.81-100.21-46.1-159.47-140.14C20.41 503.18 1.72 438.39 0 372.22V357.5q3.17-95.6 51.11-177.13c39.51-67.2 100.21-119.83 171.12-150.63Q285.78 2.12 358.05 0ZM61.86 201.88q-32.84 60.8-40.09 129.6a.73.72-87.1 0 0 .72.8l252.78-.01a.82.82 0 0 0 .76-.51q13.52-34.64 44.54-53.14 14.33-8.54 30.86-12.04c50.78-10.77 99.99 17.1 118.6 65.22a.74.73-10.3 0 0 .69.47h241.54a.67.66 87.2 0 0 .66-.73c-5.71-54.1-23.69-106.43-53.3-151.97Q603.83 93.79 510.83 50.86q-8.84-4.08-18.44-7.74-81.76-31.18-169.47-20.33c-46.59 5.75-92.02 21.63-131.77 45.16-54.11 32.02-99.16 78.13-129.29 133.93Zm394.86 165.76a83.7 83.7 0 0 0-83.7-83.7 83.7 83.7 0 0 0-83.7 83.7 83.7 83.7 0 0 0 83.7 83.7 83.7 83.7 0 0 0 83.7-83.7ZM234.3 685.78q77.01 31.8 160.32 25.3c162.59-12.7 294.59-137.59 316.79-299.18a.38.37 3.9 0 0-.38-.42l-244.05.01a.66.66 0 0 0-.59.37q-13.62 28.04-39.74 44.01c-52.16 31.91-120.89 11.24-146.93-44.08a.55.54 76.9 0 0-.49-.31H23.54a.43.42 85.9 0 0-.42.49c16.62 121.95 97.57 226.88 211.18 273.81Z"/><path fill="#FFFFFF" d="M377.13 0H735v732H378.44q75.49-2.57 143.04-33.82c72.15-33.38 131.76-90.07 169.39-159.67Q729.9 466.34 734.18 380q.24-4.66.41-9.01.19-4.75.1-9.25-1.07-50.74-14.36-96.21-29.16-99.7-106.47-170.49-6.97-6.38-14.93-12.79Q502.6 4.67 377.13 0Z"/><path fill="#ff3938" d="M61.86 201.88c30.13-55.8 75.18-101.91 129.29-133.93 39.75-23.53 85.18-39.41 131.77-45.16q87.71-10.85 169.47 20.33 9.6 3.66 18.44 7.74 93 42.93 148.79 128.71c29.61 45.54 47.59 97.87 53.3 151.97a.67.66 87.2 0 1-.66.73H470.72a.74.73-10.3 0 1-.69-.47c-18.61-48.12-67.82-75.99-118.6-65.22q-16.53 3.5-30.86 12.04-31.02 18.5-44.54 53.14a.82.82 0 0 1-.76.51l-252.78.01a.73.72-87.1 0 1-.72-.8q7.25-68.8 40.09-129.6Z"/><circle cx="373.02" cy="367.64" r="83.7" fill="#fff"/><path fill="#FFFFFF" d="M0 372.22c1.72 66.17 20.41 130.96 55.61 186.83q59.26 94.04 159.47 140.14 65.73 30.24 141.06 32.81H0V372.22Z"/><path fill="#fff" d="M234.3 685.78C120.69 638.85 39.74 533.92 23.12 411.97a.43.42 85.9 0 1 .42-.49h255.69a.55.54 76.9 0 1 .49.31c26.04 55.32 94.77 75.99 146.93 44.08q26.12-15.97 39.74-44.01a.66.66 0 0 1 .59-.37l244.05-.01a.38.37 3.9 0 1 .38.42c-22.2 161.59-154.2 286.48-316.79 299.18q-83.31 6.5-160.32-25.3Z"/></svg>
